<mxfile host="Electron" agent="Mozilla/5.0 (Windows NT 10.0; Win64; x64) AppleWebKit/537.36 (KHTML, like Gecko) draw.io/25.0.2 Chrome/128.0.6613.186 Electron/32.2.5 Safari/537.36" version="25.0.2">
  <diagram id="C5RBs43oDa-KdzZeNtuy" name="Page-1">
    <mxGraphModel dx="2045" dy="2995" grid="1" gridSize="10" guides="1" tooltips="1" connect="1" arrows="1" fold="1" page="1" pageScale="1" pageWidth="827" pageHeight="1169" math="0" shadow="0">
      <root>
        <mxCell id="WIyWlLk6GJQsqaUBKTNV-0" />
        <mxCell id="WIyWlLk6GJQsqaUBKTNV-1" parent="WIyWlLk6GJQsqaUBKTNV-0" />
        <mxCell id="5Xax_GVmNdiV6tBEejjL-16" value="Package" style="shape=folder;fontStyle=1;tabWidth=110;tabHeight=30;tabPosition=left;html=1;boundedLbl=1;labelInHeader=1;container=1;collapsible=0;whiteSpace=wrap;verticalAlign=top;" vertex="1" parent="WIyWlLk6GJQsqaUBKTNV-1">
          <mxGeometry x="400" y="-150" width="750" height="780" as="geometry" />
        </mxCell>
        <mxCell id="5Xax_GVmNdiV6tBEejjL-17" value="&lt;b&gt;Model&lt;/b&gt;" style="html=1;strokeColor=none;resizeWidth=1;resizeHeight=1;fillColor=none;part=1;connectable=0;allowArrows=0;deletable=0;whiteSpace=wrap;verticalAlign=top;" vertex="1" parent="5Xax_GVmNdiV6tBEejjL-16">
          <mxGeometry width="750" height="546" relative="1" as="geometry">
            <mxPoint y="30" as="offset" />
          </mxGeometry>
        </mxCell>
        <mxCell id="5Xax_GVmNdiV6tBEejjL-6" value="&lt;p style=&quot;margin:0px;margin-top:4px;text-align:center;&quot;&gt;&lt;i&gt;&amp;lt;&amp;lt;Interface&amp;gt;&amp;gt;&lt;/i&gt;&lt;br&gt;&lt;b&gt;MagoInterface&lt;/b&gt;&lt;/p&gt;&lt;hr size=&quot;1&quot; style=&quot;border-style:solid;&quot;&gt;&lt;p style=&quot;margin:0px;margin-left:4px;&quot;&gt;+ atacar(): int&lt;br&gt;+ defender(): int&lt;/p&gt;" style="verticalAlign=top;align=left;overflow=fill;html=1;whiteSpace=wrap;" vertex="1" parent="5Xax_GVmNdiV6tBEejjL-16">
          <mxGeometry x="160" y="110" width="203.57" height="88.26" as="geometry" />
        </mxCell>
        <mxCell id="5Xax_GVmNdiV6tBEejjL-56" style="edgeStyle=orthogonalEdgeStyle;rounded=0;orthogonalLoop=1;jettySize=auto;html=1;exitX=0.5;exitY=0;exitDx=0;exitDy=0;" edge="1" parent="5Xax_GVmNdiV6tBEejjL-16" source="5Xax_GVmNdiV6tBEejjL-0">
          <mxGeometry relative="1" as="geometry">
            <mxPoint x="440" y="400" as="targetPoint" />
          </mxGeometry>
        </mxCell>
        <mxCell id="5Xax_GVmNdiV6tBEejjL-0" value="&lt;div&gt;&lt;div&gt;&lt;i style=&quot;font-weight: 400;&quot;&gt;&amp;lt;&amp;lt;concetre product&amp;gt;&amp;gt;&lt;/i&gt;&lt;b&gt;&lt;br&gt;&lt;/b&gt;&lt;/div&gt;&lt;div&gt;&lt;i style=&quot;font-weight: 400;&quot;&gt;&amp;lt;&amp;lt;package visibility&amp;gt;&amp;gt;&lt;/i&gt;&lt;/div&gt;&lt;b&gt;&lt;/b&gt;&lt;/div&gt;MagoFogo" style="swimlane;fontStyle=1;align=center;verticalAlign=top;childLayout=stackLayout;horizontal=1;startSize=59;horizontalStack=0;resizeParent=1;resizeParentMax=0;resizeLast=0;collapsible=1;marginBottom=0;whiteSpace=wrap;html=1;" vertex="1" parent="5Xax_GVmNdiV6tBEejjL-16">
          <mxGeometry x="140" y="531.3" width="210" height="126.82608695652175" as="geometry" />
        </mxCell>
        <mxCell id="5Xax_GVmNdiV6tBEejjL-1" value="+ field: type" style="text;strokeColor=none;fillColor=none;align=left;verticalAlign=top;spacingLeft=4;spacingRight=4;overflow=hidden;rotatable=0;points=[[0,0.5],[1,0.5]];portConstraint=eastwest;whiteSpace=wrap;html=1;" vertex="1" parent="5Xax_GVmNdiV6tBEejjL-0">
          <mxGeometry y="59" width="210" height="29.391304347826086" as="geometry" />
        </mxCell>
        <mxCell id="5Xax_GVmNdiV6tBEejjL-2" value="" style="line;strokeWidth=1;fillColor=none;align=left;verticalAlign=middle;spacingTop=-1;spacingLeft=3;spacingRight=3;rotatable=0;labelPosition=right;points=[];portConstraint=eastwest;strokeColor=inherit;" vertex="1" parent="5Xax_GVmNdiV6tBEejjL-0">
          <mxGeometry y="88.3913043478261" width="210" height="9.043478260869565" as="geometry" />
        </mxCell>
        <mxCell id="5Xax_GVmNdiV6tBEejjL-3" value="+ method(type): type" style="text;strokeColor=none;fillColor=none;align=left;verticalAlign=top;spacingLeft=4;spacingRight=4;overflow=hidden;rotatable=0;points=[[0,0.5],[1,0.5]];portConstraint=eastwest;whiteSpace=wrap;html=1;" vertex="1" parent="5Xax_GVmNdiV6tBEejjL-0">
          <mxGeometry y="97.43478260869566" width="210" height="29.391304347826086" as="geometry" />
        </mxCell>
        <mxCell id="5Xax_GVmNdiV6tBEejjL-30" value="&lt;div&gt;&lt;i style=&quot;font-weight: 400;&quot;&gt;&amp;lt;&amp;lt;product&amp;gt;&amp;gt;&lt;/i&gt;&lt;b&gt;&lt;br&gt;&lt;/b&gt;&lt;/div&gt;&lt;div&gt;&lt;i style=&quot;font-weight: 400;&quot;&gt;&amp;lt;&amp;lt;package visibility&amp;gt;&amp;gt;&lt;/i&gt;&lt;i style=&quot;font-weight: 400;&quot;&gt;&lt;br&gt;&lt;/i&gt;&lt;/div&gt;&lt;b&gt;Mago&lt;/b&gt;" style="swimlane;fontStyle=1;align=center;verticalAlign=top;childLayout=stackLayout;horizontal=1;startSize=60;horizontalStack=0;resizeParent=1;resizeParentMax=0;resizeLast=0;collapsible=1;marginBottom=0;whiteSpace=wrap;html=1;" vertex="1" parent="5Xax_GVmNdiV6tBEejjL-16">
          <mxGeometry x="350" y="290" width="171.43" height="109.04347826086956" as="geometry" />
        </mxCell>
        <mxCell id="5Xax_GVmNdiV6tBEejjL-31" value="+ nome: String&lt;div&gt;+ getNome(): String&lt;/div&gt;" style="text;strokeColor=none;fillColor=none;align=left;verticalAlign=top;spacingLeft=4;spacingRight=4;overflow=hidden;rotatable=0;points=[[0,0.5],[1,0.5]];portConstraint=eastwest;whiteSpace=wrap;html=1;" vertex="1" parent="5Xax_GVmNdiV6tBEejjL-30">
          <mxGeometry y="60" width="171.43" height="40" as="geometry" />
        </mxCell>
        <mxCell id="5Xax_GVmNdiV6tBEejjL-32" value="" style="line;strokeWidth=1;fillColor=none;align=left;verticalAlign=middle;spacingTop=-1;spacingLeft=3;spacingRight=3;rotatable=0;labelPosition=right;points=[];portConstraint=eastwest;strokeColor=inherit;" vertex="1" parent="5Xax_GVmNdiV6tBEejjL-30">
          <mxGeometry y="100" width="171.43" height="9.043478260869565" as="geometry" />
        </mxCell>
        <mxCell id="5Xax_GVmNdiV6tBEejjL-34" value="" style="endArrow=block;dashed=1;endFill=0;endSize=12;html=1;rounded=0;exitX=0.5;exitY=0;exitDx=0;exitDy=0;entryX=1;entryY=0.5;entryDx=0;entryDy=0;" edge="1" parent="5Xax_GVmNdiV6tBEejjL-16" source="5Xax_GVmNdiV6tBEejjL-30" target="5Xax_GVmNdiV6tBEejjL-6">
          <mxGeometry width="160" relative="1" as="geometry">
            <mxPoint x="400" y="190" as="sourcePoint" />
            <mxPoint x="560" y="190" as="targetPoint" />
          </mxGeometry>
        </mxCell>
        <mxCell id="5Xax_GVmNdiV6tBEejjL-57" style="edgeStyle=orthogonalEdgeStyle;rounded=0;orthogonalLoop=1;jettySize=auto;html=1;exitX=0.5;exitY=0;exitDx=0;exitDy=0;" edge="1" parent="5Xax_GVmNdiV6tBEejjL-16" source="5Xax_GVmNdiV6tBEejjL-43">
          <mxGeometry relative="1" as="geometry">
            <mxPoint x="440" y="400" as="targetPoint" />
          </mxGeometry>
        </mxCell>
        <mxCell id="5Xax_GVmNdiV6tBEejjL-43" value="&lt;div&gt;&lt;div&gt;&lt;i style=&quot;font-weight: 400;&quot;&gt;&amp;lt;&amp;lt;concetre product&amp;gt;&amp;gt;&lt;/i&gt;&lt;b&gt;&lt;br&gt;&lt;/b&gt;&lt;/div&gt;&lt;div&gt;&lt;i style=&quot;font-weight: 400;&quot;&gt;&amp;lt;&amp;lt;package visibility&amp;gt;&amp;gt;&lt;/i&gt;&lt;/div&gt;&lt;b&gt;&lt;/b&gt;&lt;/div&gt;MagoGelo" style="swimlane;fontStyle=1;align=center;verticalAlign=top;childLayout=stackLayout;horizontal=1;startSize=59;horizontalStack=0;resizeParent=1;resizeParentMax=0;resizeLast=0;collapsible=1;marginBottom=0;whiteSpace=wrap;html=1;" vertex="1" parent="5Xax_GVmNdiV6tBEejjL-16">
          <mxGeometry x="482.86" y="531.3" width="210" height="126.82608695652175" as="geometry" />
        </mxCell>
        <mxCell id="5Xax_GVmNdiV6tBEejjL-44" value="+ field: type" style="text;strokeColor=none;fillColor=none;align=left;verticalAlign=top;spacingLeft=4;spacingRight=4;overflow=hidden;rotatable=0;points=[[0,0.5],[1,0.5]];portConstraint=eastwest;whiteSpace=wrap;html=1;" vertex="1" parent="5Xax_GVmNdiV6tBEejjL-43">
          <mxGeometry y="59" width="210" height="29.391304347826086" as="geometry" />
        </mxCell>
        <mxCell id="5Xax_GVmNdiV6tBEejjL-45" value="" style="line;strokeWidth=1;fillColor=none;align=left;verticalAlign=middle;spacingTop=-1;spacingLeft=3;spacingRight=3;rotatable=0;labelPosition=right;points=[];portConstraint=eastwest;strokeColor=inherit;" vertex="1" parent="5Xax_GVmNdiV6tBEejjL-43">
          <mxGeometry y="88.3913043478261" width="210" height="9.043478260869565" as="geometry" />
        </mxCell>
        <mxCell id="5Xax_GVmNdiV6tBEejjL-46" value="+ method(type): type" style="text;strokeColor=none;fillColor=none;align=left;verticalAlign=top;spacingLeft=4;spacingRight=4;overflow=hidden;rotatable=0;points=[[0,0.5],[1,0.5]];portConstraint=eastwest;whiteSpace=wrap;html=1;" vertex="1" parent="5Xax_GVmNdiV6tBEejjL-43">
          <mxGeometry y="97.43478260869566" width="210" height="29.391304347826086" as="geometry" />
        </mxCell>
        <mxCell id="5Xax_GVmNdiV6tBEejjL-53" value="" style="endArrow=block;dashed=1;endFill=0;endSize=12;html=1;rounded=0;exitX=1;exitY=0.5;exitDx=0;exitDy=0;" edge="1" parent="5Xax_GVmNdiV6tBEejjL-16" source="5Xax_GVmNdiV6tBEejjL-21">
          <mxGeometry width="160" relative="1" as="geometry">
            <mxPoint x="-67.14000000000021" y="726.9999999999995" as="sourcePoint" />
            <mxPoint x="482.86" y="656" as="targetPoint" />
            <Array as="points">
              <mxPoint x="130" y="740" />
              <mxPoint x="350" y="740" />
            </Array>
          </mxGeometry>
        </mxCell>
        <mxCell id="5Xax_GVmNdiV6tBEejjL-14" value="Package" style="shape=folder;fontStyle=1;tabWidth=110;tabHeight=30;tabPosition=left;html=1;boundedLbl=1;labelInHeader=1;container=1;collapsible=0;whiteSpace=wrap;" vertex="1" parent="WIyWlLk6GJQsqaUBKTNV-1">
          <mxGeometry x="-440" y="260" width="350" height="330" as="geometry" />
        </mxCell>
        <mxCell id="5Xax_GVmNdiV6tBEejjL-15" value="&lt;font style=&quot;font-size: 24px;&quot;&gt;Código Cliente&lt;/font&gt;" style="html=1;strokeColor=none;resizeWidth=1;resizeHeight=1;fillColor=none;part=1;connectable=0;allowArrows=0;deletable=0;whiteSpace=wrap;" vertex="1" parent="5Xax_GVmNdiV6tBEejjL-14">
          <mxGeometry width="350" height="231" relative="1" as="geometry">
            <mxPoint y="30" as="offset" />
          </mxGeometry>
        </mxCell>
        <mxCell id="5Xax_GVmNdiV6tBEejjL-22" value="Use" style="endArrow=open;endSize=12;dashed=1;html=1;rounded=0;entryX=-0.006;entryY=-0.109;entryDx=0;entryDy=0;entryPerimeter=0;" edge="1" parent="5Xax_GVmNdiV6tBEejjL-14" target="5Xax_GVmNdiV6tBEejjL-21">
          <mxGeometry width="160" relative="1" as="geometry">
            <mxPoint x="340" y="180" as="sourcePoint" />
            <mxPoint x="500" y="180" as="targetPoint" />
          </mxGeometry>
        </mxCell>
        <mxCell id="5Xax_GVmNdiV6tBEejjL-18" value="MagoFactory" style="swimlane;fontStyle=1;align=center;verticalAlign=top;childLayout=stackLayout;horizontal=1;startSize=26;horizontalStack=0;resizeParent=1;resizeParentMax=0;resizeLast=0;collapsible=1;marginBottom=0;whiteSpace=wrap;html=1;" vertex="1" parent="WIyWlLk6GJQsqaUBKTNV-1">
          <mxGeometry x="30" y="500" width="330" height="90" as="geometry" />
        </mxCell>
        <mxCell id="5Xax_GVmNdiV6tBEejjL-20" value="" style="line;strokeWidth=1;fillColor=none;align=left;verticalAlign=middle;spacingTop=-1;spacingLeft=3;spacingRight=3;rotatable=0;labelPosition=right;points=[];portConstraint=eastwest;strokeColor=inherit;" vertex="1" parent="5Xax_GVmNdiV6tBEejjL-18">
          <mxGeometry y="26" width="330" height="8" as="geometry" />
        </mxCell>
        <mxCell id="5Xax_GVmNdiV6tBEejjL-21" value="+ criarMagoFogo():&amp;nbsp;&lt;span style=&quot;text-align: center;&quot;&gt;MagoInterface&lt;/span&gt;&lt;div&gt;+ criarMagoGelo():&amp;nbsp;&lt;span style=&quot;text-align: center;&quot;&gt;MagoInterface&lt;/span&gt;&lt;/div&gt;" style="text;strokeColor=none;fillColor=none;align=left;verticalAlign=top;spacingLeft=4;spacingRight=4;overflow=hidden;rotatable=0;points=[[0,0.5],[1,0.5]];portConstraint=eastwest;whiteSpace=wrap;html=1;" vertex="1" parent="5Xax_GVmNdiV6tBEejjL-18">
          <mxGeometry y="34" width="330" height="56" as="geometry" />
        </mxCell>
        <mxCell id="5Xax_GVmNdiV6tBEejjL-24" value="&lt;font style=&quot;font-size: 24px;&quot;&gt;Abstract Class -&amp;gt; Estrutura Comum das Classes para serem instanciadas&lt;/font&gt;&lt;div&gt;&lt;font style=&quot;font-size: 24px;&quot;&gt;&lt;br&gt;&lt;/font&gt;&lt;/div&gt;&lt;div&gt;&lt;font style=&quot;font-size: 24px;&quot;&gt;Interfaces -&amp;gt; Garantem que as classes se comportem de forma parecida.&lt;/font&gt;&lt;/div&gt;" style="text;html=1;align=left;verticalAlign=middle;whiteSpace=wrap;rounded=0;" vertex="1" parent="WIyWlLk6GJQsqaUBKTNV-1">
          <mxGeometry x="-240" y="-210" width="300" height="320" as="geometry" />
        </mxCell>
        <mxCell id="5Xax_GVmNdiV6tBEejjL-52" value="" style="endArrow=block;dashed=1;endFill=0;endSize=12;html=1;rounded=0;entryX=0;entryY=0.5;entryDx=0;entryDy=0;exitX=1;exitY=0;exitDx=0;exitDy=0;" edge="1" parent="WIyWlLk6GJQsqaUBKTNV-1" source="5Xax_GVmNdiV6tBEejjL-18" target="5Xax_GVmNdiV6tBEejjL-1">
          <mxGeometry width="160" relative="1" as="geometry">
            <mxPoint x="300" y="549.38" as="sourcePoint" />
            <mxPoint x="460" y="549.38" as="targetPoint" />
          </mxGeometry>
        </mxCell>
      </root>
    </mxGraphModel>
  </diagram>
</mxfile>
